<svg width="100%" viewBox="140 77 400 400" role="img" xmlns="http://www.w3.org/2000/svg">
<title>Ferrowl app icon — clay-toned owl with register-gauge eyes and a terminal grid chest</title>
<defs>
<linearGradient id="badgeGrad2" x1="0" y1="0" x2="0" y2="1">
<stop offset="0" stop-color="#333840"/>
<stop offset="1" stop-color="#1F242A"/>
</linearGradient>
<linearGradient id="bodyGrad2" x1="0" y1="0" x2="0" y2="1">
<stop offset="0" stop-color="#AD8166"/>
<stop offset="1" stop-color="#8A6049"/>
</linearGradient>
<linearGradient id="wingGrad2" x1="0" y1="0" x2="0" y2="1">
<stop offset="0" stop-color="#6F4E3C"/>
<stop offset="1" stop-color="#553A2C"/>
</linearGradient>
</defs>

<rect x="140" y="77" width="400" height="400" rx="76" fill="url(#badgeGrad2)" stroke="#12161A" stroke-width="2"/>
<rect x="150" y="87" width="380" height="380" rx="68" fill="none" stroke="#E0CDB4" stroke-opacity="0.12" stroke-width="1"/>
<circle cx="340" cy="277" r="190" fill="#C9A87E" fill-opacity="0.05"/>

<path d="M300 172 L268 122 L324 166 Z" fill="#624636"/>
<path d="M380 172 L412 122 L356 166 Z" fill="#624636"/>

<path d="M236 230 Q204 300 224 394 Q236 422 270 410 Q252 320 262 240 Q250 224 236 230 Z" fill="url(#wingGrad2)" stroke="#4A3326" stroke-width="1.5"/>
<path d="M444 230 Q476 300 456 394 Q444 422 410 410 Q428 320 418 240 Q430 224 444 230 Z" fill="url(#wingGrad2)" stroke="#4A3326" stroke-width="1.5"/>

<ellipse cx="340" cy="300" rx="122" ry="150" fill="url(#bodyGrad2)" stroke="#4A3326" stroke-width="2"/>
<ellipse cx="340" cy="202" rx="70" ry="40" fill="#C9A684" fill-opacity="0.20"/>

<circle cx="294" cy="252" r="56" fill="#DAC9B2" stroke="#B49C7E" stroke-width="1"/>
<circle cx="386" cy="252" r="56" fill="#DAC9B2" stroke="#B49C7E" stroke-width="1"/>
<circle cx="294" cy="252" r="46" fill="#171B1E" stroke="#C49A63" stroke-width="3"/>
<circle cx="386" cy="252" r="46" fill="#171B1E" stroke="#C49A63" stroke-width="3"/>
<circle cx="294" cy="252" r="42" fill="none" stroke="#BB9560" stroke-width="3" stroke-dasharray="2 11"/>
<circle cx="386" cy="252" r="42" fill="none" stroke="#BB9560" stroke-width="3" stroke-dasharray="2 11"/>
<circle cx="294" cy="252" r="30" fill="#D2A867"/>
<circle cx="386" cy="252" r="30" fill="#D2A867"/>
<circle cx="294" cy="252" r="18" fill="#161A1D"/>
<circle cx="386" cy="252" r="18" fill="#161A1D"/>
<circle cx="301" cy="252" r="9" fill="#0C0F11"/>
<circle cx="379" cy="252" r="9" fill="#0C0F11"/>
<circle cx="298" cy="248" r="3.2" fill="#EFE4D2"/>
<circle cx="376" cy="248" r="3.2" fill="#EFE4D2"/>
<circle cx="305" cy="256" r="2" fill="#8FB39A"/>
<circle cx="383" cy="256" r="2" fill="#8FB39A"/>

<path d="M340 294 L323 300 L340 338 L357 300 Z" fill="#5E4030" stroke="#3F2A1E" stroke-width="1"/>
<line x1="340" y1="300" x2="340" y2="332" stroke="#3F2A1E" stroke-width="1"/>

<rect x="288" y="348" width="104" height="82" rx="10" fill="#181D21" stroke="#C49A63" stroke-width="2"/>
<rect x="298" y="360" width="16" height="14" rx="2" fill="#C99E62"/>
<rect x="320" y="360" width="16" height="14" rx="2" fill="#343A41"/>
<rect x="342" y="360" width="16" height="14" rx="2" fill="#C99E62"/>
<rect x="364" y="360" width="16" height="14" rx="2" fill="#8FB39A"/>
<rect x="298" y="380" width="16" height="14" rx="2" fill="#343A41"/>
<rect x="320" y="380" width="16" height="14" rx="2" fill="#8FB39A"/>
<rect x="342" y="380" width="16" height="14" rx="2" fill="#343A41"/>
<rect x="364" y="380" width="16" height="14" rx="2" fill="#C99E62"/>
<rect x="298" y="400" width="16" height="14" rx="2" fill="#C99E62"/>
<rect x="320" y="400" width="16" height="14" rx="2" fill="#343A41"/>
<rect x="342" y="400" width="16" height="14" rx="2" fill="#8FB39A"/>
<rect x="364" y="400" width="16" height="14" rx="2" fill="#343A41"/>
</svg>
